<svg width="24" height="24" viewBox="0 0 24 24" fill="none" xmlns="http://www.w3.org/2000/svg">
<path d="M7.36743 16.2454C7.33421 17.9054 8.65278 19.2783 10.3127 19.3118C8.65266 19.2786 7.27975 20.5971 7.24634 22.2571C7.27975 20.5971 5.96105 19.2241 4.30103 19.1907C5.96102 19.2241 7.33399 17.9054 7.36743 16.2454ZM17.7112 11.925C17.673 14.5826 19.797 16.7675 22.4543 16.8059C19.7968 16.7677 17.6109 18.8917 17.5725 21.5491C17.6109 18.8917 15.4877 16.7057 12.8303 16.6672C15.4877 16.7057 17.6728 14.5824 17.7112 11.925ZM10.845 1.43774C10.7449 5.42817 13.8983 8.74453 17.8889 8.84497C13.8987 8.74507 10.5824 11.8986 10.4817 15.8889C10.5816 11.8985 7.42828 8.58219 3.43774 8.48169C7.42829 8.58179 10.7447 5.42854 10.845 1.43774Z" fill="#999999"/>
</svg>
